<?xml version="1.0" standalone="no"?>
<!DOCTYPE svg PUBLIC "-//W3C//DTD SVG 1.1//EN" "http://www.w3.org/Graphics/SVG/1.1/DTD/svg11.dtd">
<svg xmlns="http://www.w3.org/2000/svg">
<metadata>Generated by Fontastic.me</metadata>
<defs>
<font id="cgs" horiz-adv-x="512">
<font-face font-family="cgs" units-per-em="512" ascent="480" descent="-32"/>
<missing-glyph horiz-adv-x="512" />

<glyph unicode="&#97;" d="M194 406l124 0c19 0 35 16 35 35 0 20-16 36-35 36l-7 0c-2 20-20 35-40 35l-30 0c-21 0-38-15-41-35l-6 0c-19 0-35-16-35-36 0-19 16-35 35-35z m171 82l-22 0c13-7 23-20 26-35 27-3 48-25 48-52l0-314c0-28-23-52-52-52l-218 0c-29 0-52 24-52 52l0 314c0 27 21 49 48 52 3 15 13 28 26 35l-22 0c-48 0-87-39-87-87l0-314c0-48 39-87 87-87l218 0c48 0 87 39 87 87l0 314c0 48-39 87-87 87z m-1-143l-108 0c-10 0-18-8-18-17 0-10 8-18 18-18l108 0c10 0 18 8 18 18 0 9-8 17-18 17z m0-93l-108 0c-10 0-18-8-18-17 0-10 8-18 18-18l108 0c10 0 18 8 18 18 0 9-8 17-18 17z m0-93l-108 0c-10 0-18-8-18-17 0-10 8-18 18-18l108 0c10 0 18 8 18 18 0 9-8 17-18 17z m-134 169c0 29-24 52-53 52-29 0-52-23-52-52 0-20 12-38 28-47-16-8-28-26-28-46 0-21 12-38 28-47-16-9-28-26-28-46 0-29 23-53 52-53 29 0 53 24 53 53 0 20-12 37-29 46 17 9 29 26 29 47 0 20-12 38-29 46 17 9 29 27 29 47z m-20-163c3-4 3-11 0-14l-32-32c-2-2-5-3-7-3-3 0-5 1-7 3l-19 18c-4 4-4 11 0 14 4 4 10 4 14 0l12-11 25 25c4 3 10 3 14 0z m0 93c3-4 3-10 0-14l-32-32c-2-2-5-3-7-3-3 0-5 1-7 3l-19 19c-4 3-4 10 0 13 4 4 10 4 14 0l12-11 25 25c4 3 10 3 14 0z m0 79l-32-32c-2-2-5-3-7-3-3 0-5 1-7 3l-19 19c-4 3-4 10 0 14 4 3 10 3 14 0l12-12 25 25c4 4 10 4 14 0 3-4 3-10 0-14z"/>
<glyph unicode="&#98;" d="M125 387c6 29 13 55 23 78 4 12 10 22 15 32-69-25-123-79-148-148 9 5 20 11 32 15 23 10 49 17 78 23z m154 105c-11 13-22 20-32 20-18 0-41-25-58-71 22 16 45 30 70 42 6 3 13 6 20 9z m91-350c-6-29-13-55-23-78-4-12-10-23-15-32 69 25 123 79 148 148-10-5-20-11-32-15-23-10-49-17-78-23z m-345 102c12 28 28 54 46 79-46-17-71-40-71-59 0 0 0 0 0 0 0 0 0 0 0 0 0-9 7-20 20-31 2 4 3 7 5 11z m484 169c-8 41-38 70-77 80-53 13-110-3-157-26-39-18-74-42-106-69-54-47-100-104-128-170-21-47-37-106-19-157 6-20 19-39 36-51 22-16 48-21 75-20 33 2 64 12 94 26 7-6 14-9 20-9 25 0 56 43 73 117-23-2-48-4-73-4-24 0-49 2-72 4 11-50 29-85 47-103-17-7-35-11-54-14-43-7-96 2-115 47-7 17-8 37-6 56 28-39 67-69 112-87 1 1 2 1 3 1-5 9-10 19-14 30-10 23-17 49-23 78-25 5-48 11-69 19 5 15 11 29 18 43 13-4 28-9 43-12-2 23-4 48-4 72 0 2 0 3 1 5 15 21 32 41 50 59-2-20-3-41-3-64 0-29 1-56 5-81 25-4 52-5 81-5 30 0 57 1 82 5 3 25 5 52 5 81 0 30-2 57-5 82-25 3-52 5-82 5-22 0-43-1-63-3 10 10 21 20 32 29 8 7 18 15 27 21 2 0 3 0 4 0 25 0 50-1 73-3-3 15-8 30-12 43 5 2 11 5 17 7 8 4 17 8 26 10 8-20 14-43 19-68 29-6 55-13 78-23 11-4 21-9 30-14 0 1 0 2 1 3-18 45-48 84-86 112 3 0 7 0 11 1 24 0 46-5 65-20 0 0 0 0-1 0 5-4 9-8 12-14 8-11 13-24 15-38 5-26 1-54-6-80-2-8-5-16-8-24-18 18-54 36-103 47 2-23 3-48 3-73 0-24-1-49-3-72 74 17 117 48 117 72 0 0 0 0 0 0 0 0 0 0 0 0 0 7-3 14-9 21 19 39 32 85 23 128z"/>
<glyph unicode="&#99;" d="M6 411l78 0c4 0 6 2 6 6l0 23c0 4-2 7-6 7l-78 0c-3 0-6-3-6-7l0-23c0-4 3-6 6-6z m503-64c-3 2-5 2-8 1l-127-56 0 49c0 2-1 5-3 6-2 2-5 2-8 1l-127-56 0 49c0 2-1 5-3 6-2 2-5 2-7 1l-136-59 0 94c0 3-2 6-6 6l-78 0c-3 0-6-3-6-6l0-303c0-8 7-15 15-15l489 0c5 0 8 4 8 8l0 268c0 2-1 5-3 6z m-325-188c0-4-3-8-7-8l-35 0c-4 0-7 4-7 8l0 57c0 4 3 8 7 8l35 0c4 0 7-4 7-8z m138 0c0-4-3-8-7-8l-35 0c-4 0-7 4-7 8l0 57c0 4 3 8 7 8l35 0c4 0 7-4 7-8z m138 0c0-4-3-8-7-8l-35 0c-4 0-7 4-7 8l0 57c0 4 3 8 7 8l35 0c4 0 7-4 7-8z"/>
<glyph unicode="&#100;" d="M484 301l-137-136c-38-38-99-38-136 0l-46 45 46 46 45-46c13-12 33-12 46 0l136 137c13 13 13 33 0 46l-45 45c-13 13-33 13-46 0l-49-49c-22 14-48 19-73 18l77 77c37 37 99 37 136 0l46-46c38-38 38-99 0-137z m-270-179l-49-48c-13-13-33-13-46 0l-45 45c-13 13-13 33 0 46l137 136c12 13 33 13 45 0l46-45 45 45-45 46c-38 38-99 38-137 0l-137-137c-37-37-37-99 0-136l46-46c38-38 99-38 137 0l77 77c-26-2-52 4-74 17z"/>
<glyph unicode="&#101;" d="M335 238c0-3-1-5-3-7l-133-133c-2-2-5-3-7-3-2 0-5 1-7 3l-14 14c-2 2-3 4-3 7 0 2 1 5 3 6l112 113-112 112c-2 2-3 4-3 7 0 2 1 4 3 6l14 14c2 2 5 3 7 3 2 0 5-1 7-3l133-133c2-2 3-4 3-6z"/>
<glyph unicode="&#102;" d="M399 174c0-3-1-5-3-7l-15-14c-1-2-4-3-6-3-3 0-5 1-7 3l-112 112-112-112c-2-2-4-3-7-3-2 0-5 1-6 3l-15 14c-2 2-3 4-3 7 0 2 1 4 3 6l133 133c2 2 5 3 7 3 2 0 5-1 7-3l133-133c2-2 3-4 3-6z"/>
<glyph unicode="&#103;" d="M344 357c0-3-1-5-3-7l-112-112 112-113c2-1 3-4 3-6 0-3-1-5-3-7l-14-14c-2-2-5-3-7-3-2 0-5 1-7 3l-133 133c-2 2-3 4-3 7 0 2 1 4 3 6l133 133c2 2 5 3 7 3 2 0 5-1 7-3l14-14c2-2 3-4 3-6z"/>
<glyph unicode="&#104;" d="M399 302c0-3-1-5-3-7l-133-133c-2-2-5-3-7-3-2 0-5 1-7 3l-133 133c-2 2-3 4-3 7 0 2 1 4 3 6l15 15c1 1 4 2 6 2 3 0 5-1 7-2l112-113 112 113c2 1 4 2 7 2 2 0 5-1 6-2l15-15c2-2 3-4 3-6z"/>
<glyph unicode="&#105;" d="M347 274c0 36-12 66-37 91-25 25-55 37-91 37-35 0-65-12-90-37-25-25-38-55-38-91 0-35 13-65 38-90 25-25 55-38 90-38 36 0 66 13 91 38 25 25 37 55 37 90z m147-237c0-10-4-19-11-26-7-7-16-11-26-11-10 0-19 4-26 11l-98 98c-34-24-72-36-114-36-27 0-53 5-78 16-25 11-46 25-64 43-18 18-32 39-43 64-10 25-16 51-16 78 0 28 6 54 16 78 11 25 25 47 43 65 18 18 39 32 64 43 25 10 51 15 78 15 28 0 54-5 79-15 24-11 46-25 64-43 18-18 32-40 43-65 10-24 16-50 16-78 0-42-12-80-36-114l98-98c7-7 11-15 11-25z"/>
<glyph unicode="&#106;" d="M303 63l-186 186c-7 7-10 15-10 25 0 11 3 19 10 26l186 186c7 7 16 11 26 11 10 0 19-4 26-11l22-21c7-7 10-16 10-26 0-10-3-19-10-26l-139-139 139-138c7-8 10-16 10-26 0-10-3-19-10-26l-22-21c-7-7-16-11-26-11-10 0-19 4-26 11z"/>
<glyph unicode="&#107;" d="M405 274c0-10-3-18-10-26l-186-186c-7-7-16-10-26-10-10 0-19 3-26 10l-22 22c-7 7-10 16-10 26 0 10 3 18 10 25l139 139-139 139c-7 7-10 16-10 26 0 10 3 19 10 26l22 21c7 7 16 11 26 11 10 0 19-4 26-11l186-186c7-7 10-16 10-26z"/>
<glyph unicode="&#108;" d="M479 165c0-11-4-19-11-26l-21-22c-8-7-16-10-26-10-11 0-19 3-26 10l-139 139-139-139c-7-7-15-10-26-10-10 0-18 3-25 10l-22 22c-7 7-11 15-11 26 0 10 4 18 11 26l186 186c7 7 16 10 26 10 10 0 19-3 26-10l186-186c7-8 11-16 11-26z"/>
<glyph unicode="&#109;" d="M479 311c0-10-4-19-11-26l-186-186c-7-7-16-11-26-11-10 0-19 4-26 11l-186 186c-7 7-11 16-11 26 0 10 4 19 11 26l21 21c8 7 17 11 26 11 11 0 19-4 26-11l139-139 139 139c7 7 15 11 26 11 9 0 18-4 26-11l21-21c7-8 11-16 11-26z"/>
<glyph unicode="&#110;" d="M466 66c0 0 0 0 0 0 0-11-9-20-19-20l-382 0c-10 0-19 9-19 20 0 0 0 0 0 0 0 0 0 74 52 101 33 17 21 3 61 21 41 17 51 23 51 23l0 41c0 0-15 12-20 50-9-3-13 11-13 20-1 9-6 37 6 34-2 19-4 36-3 44 3 31 32 64 76 66 53-2 74-34 77-66 0-8-2-25-4-44 12 3 7-25 6-34 0-9-4-23-13-20-5-38-20-50-20-50l0-40c0 0 10-6 51-23 40-18 28-5 61-22 52-27 52-101 52-101z"/>
<glyph unicode="&#111;" d="M254 305c109 0 197 40 197 88 0 48-88 88-197 88-108 0-196-40-196-88 0-48 88-88 196-88z m0-24c-108 0-196 40-196 88 0-20 0-34 0-67 0-48 88-88 196-88 109 0 197 40 197 88 0 18 0 36 0 67 0-48-88-88-197-88z m0-91c-108 0-196 40-196 88 0-20 0-34 0-67 0-48 88-88 196-88 109 0 197 40 197 88 0 18 0 36 0 67 0-48-88-88-197-88z m0-91c-108 0-196 39-196 88 0-20 0-34 0-67 0-49 88-88 196-88 109 0 197 39 197 88 0 18 0 36 0 67 0-49-88-88-197-88z"/>
<glyph unicode="&#112;" d="M414 159l-97 97 97 97c17 17 17 44 0 61-17 17-44 17-61 0l-97-97-97 97c-17 17-44 17-61 0-17-17-17-44 0-61l97-97-97-97c-17-17-17-44 0-61 8-8 19-13 30-13 11 0 23 5 31 13l97 97 97-97c9-8 20-13 31-13 11 0 22 5 30 13 17 17 17 44 0 61z"/>
<glyph unicode="&#113;" d="M311 153l0-68c0-3-1-6-4-8-2-3-5-4-8-4l-68 0c-3 0-6 1-8 4-2 2-4 5-4 8l0 68c0 3 2 6 4 8 2 2 5 4 8 4l68 0c3 0 6-2 8-4 3-2 4-5 4-8z m90 172c0-11-1-20-4-29-3-9-7-17-10-22-4-6-9-11-16-17-7-6-12-10-16-13-5-2-10-6-18-10-8-4-14-10-19-18-6-8-8-15-8-19 0-4-1-7-4-10-2-3-5-4-8-4l-68 0c-3 0-6 2-8 5-2 4-3 7-3 11l0 13c0 16 7 30 19 44 12 14 26 25 41 31 11 6 19 11 24 16 5 6 7 13 7 22 0 8-4 15-13 21-9 6-19 9-31 9-12 0-23-2-31-8-7-5-17-16-30-33-3-3-6-4-9-4-3 0-5 0-7 2l-47 36c-3 2-4 4-5 7 0 3 0 5 2 8 30 51 75 76 132 76 16 0 31-3 46-9 16-6 30-14 42-24 13-10 23-22 30-36 8-15 12-30 12-45z"/>
<glyph unicode="&#114;" d="M514-2l-516 0 0 516 516 0z m-512 4l508 0 0 508-508 0z m71 439l166 0 0-165-166 0z m200 0l166 0 0-165-166 0z m-200-198l166 0 0-166-166 0z m200 0l166 0 0-166-166 0z"/>
<glyph unicode="&#116;" d="M256 512c-141 0-256-115-256-256 0-141 115-256 256-256 141 0 256 115 256 256 0 141-115 256-256 256z m0-480c-123 0-224 101-224 224 0 123 101 224 224 224 123 0 224-101 224-224 0-123-101-224-224-224z m16 383l-32 0 1-176 110-94 20 27-99 84z"/>
<glyph unicode="&#117;" d="M318 426l104-104-263-264-104 104z m183 25l-46 46c-18 18-47 18-65 0l-45-44 105-104 51 52c14 13 14 36 0 50z m-501-435c-2-9 6-16 15-14l116 28-104 104z"/>
<glyph unicode="&#118;" d="M289 202l0 246-65 0 0-246-99 0 127-129 133 129z"/>
<glyph unicode="&#119;" d="M429 264l-230 234c-2 2-4 3-6 3-3 0-5-1-7-3-2-2-3-4-3-6 0-3 1-5 3-7l224-227-227-227c-2-1-3-3-3-6 0-2 1-5 3-7 0 0 1 0 1-1 1 0 1 0 2 0 1 0 1-1 2-1 0 0 1 0 2 0 2 0 4 1 6 2l233 233c1 2 2 3 2 5 1 1 1 3 0 4 0 2-1 3-2 4z"/>
<glyph unicode="&#120;" d="M254 506c-35 0-68-7-99-20-31-13-58-31-81-54-23-23-41-50-54-81-13-31-20-64-20-99 0-34 7-67 20-98 13-31 31-58 54-81 23-23 50-41 81-54 31-13 64-20 99-20 34 0 67 7 98 20 31 13 58 31 81 54 22 23 40 50 54 81 13 31 20 64 20 98 0 35-7 68-20 99-14 31-32 58-54 81-23 23-50 41-81 54-31 13-64 20-98 20z m134-204l-151-151c-4-4-8-6-13-6-5-1-9 0-13 2-2 1-3 3-4 4l-87 87c-5 4-7 9-7 15 0 6 2 11 6 15 4 4 9 6 15 6 6 0 11-2 15-6l73-72 136 136c4 4 9 6 15 6 6 0 11-2 15-6 4-4 6-9 6-15 0-6-2-11-6-15z"/>
<glyph unicode="&#121;" d="M255 512c-46 0-89-11-128-34-39-23-70-54-93-93-23-39-34-82-34-128 0-46 11-89 34-128 23-39 54-70 93-93 39-23 82-34 128-34 70 0 130 25 180 75 50 50 75 110 75 180 0 46-11 89-34 128-23 39-54 70-93 93-39 23-82 34-128 34z m105-326c2-2 4-5 5-8 1-3 2-6 2-9 0-6-3-12-7-17-5-4-11-7-17-7-3 0-6 1-9 2-3 1-6 3-8 5l-71 71-70-71c-3-2-5-4-8-5-3-1-6-2-9-2-7 0-13 3-17 7-5 5-7 11-7 17 0 1 0 2 0 3l0 3c0 1 1 2 1 3 1 1 1 2 2 3 0 1 1 2 2 3 0 1 1 1 2 2l70 71-70 70c-1 2-2 3-3 4-1 1-2 3-2 4-1 2-2 3-2 5 0 1 0 3 0 4 0 7 2 13 7 17 4 5 10 7 17 7 6 0 12-2 17-7l70-70 71 70c2 3 5 5 8 6 3 1 6 1 9 1 6 0 12-2 17-7 4-4 7-10 7-17 0-2-1-4-1-6-1-2-2-4-3-6-1-1-2-3-3-5l-71-70z"/>
<glyph unicode="&#122;" d="M469 92l-107 108c-1 1-2 2-4 4 6 9 11 19 15 29 4 11 8 22 10 33 2 12 4 23 4 35 0 33-8 63-24 90-16 27-38 49-65 65-27 16-56 24-88 24-20 0-38-3-56-9-18-6-35-15-49-26-15-11-28-23-39-38-11-15-19-31-25-49-6-18-9-37-9-57 0-32 8-62 24-90 16-27 37-49 64-65 27-16 57-24 90-24 34 0 66 10 96 29 1-2 2-3 3-4l107-108c7-7 16-11 27-11 5 0 9 1 14 3 4 2 8 5 12 8 7 8 11 17 11 27 0 10-4 19-11 26z m-259 87c-34 0-63 12-86 36-24 24-36 52-36 86 0 34 12 63 36 87 23 24 52 35 85 35 34 0 62-11 86-35 24-24 36-53 36-87 0-16-4-32-10-47-6-15-15-28-26-39-11-11-23-20-38-26-15-7-31-10-47-10z"/>
<glyph unicode="&#65;" d="M180 106l0 341 136 0 0-341z m17 17l102 0 0 307-102 0z"/>
<glyph unicode="&#66;" d="M146 377c-9 0-18 0-26 0l-42 0c-6 0-12-1-18-3-6-2-12-5-16-9-5-4-9-10-12-16-3-7-4-14-4-23l0-38 456 0 0 20c0 6 0 11 0 15-1 5-1 8-1 9 0 5-1 10-2 15-2 5-5 10-9 15-4 4-9 8-15 11-7 3-15 4-25 4l-67 0 0-48-219 0z m337-116l0-26c0-8 0-16 1-26 0-10 0-19 0-29 0-10-2-18-5-24-4-6-8-11-13-15-6-4-11-6-17-8-6-1-11-2-16-2-4 0-9 0-14 0-6 0-11 0-15 0l-16 0-23 64-219 0-22-64-32 0c-6 0-14 0-22 0-9 0-15 2-21 5-5 3-9 7-12 12-4 4-6 9-7 14-2 6-2 11-2 15l0 84z m-396-32c-4 0-7-1-10-4-3-3-5-6-5-11 0-4 2-7 5-10 3-3 6-5 10-5 5 0 8 2 11 5 3 3 5 6 5 10 0 5-2 8-5 11-3 3-6 4-11 4z m77-62c-3-8-5-16-7-24-2-6-4-12-5-18-2-6-4-10-4-13-1-2-1-4-2-7 0-3 0-5 1-7 0-2 2-4 5-6 2-1 6-2 10-2l183 0c7 0 13 2 17 6 3 4 4 11 1 19-2 5-3 10-5 16-1 6-3 11-5 17-1 6-3 13-5 19z m10 188l0 114c0 4 0 7 1 11 1 4 3 8 5 11 3 3 6 6 10 8 5 2 10 3 17 3l94 0c11 0 19-2 26-7 7-5 10-14 10-27l0-113z"/>
<glyph unicode="&#67;" d="M235 156l-45-36-109 135 45 36z m0 0l-37 45 224 182 36-45z m277-156l-512 0 0 512 512 0z m-508 4l504 0 0 504-504 0z"/>
<glyph unicode="&#68;" d="M324 210c0-19-7-36-20-49-13-14-29-21-48-21-19 0-35 7-48 21-13 13-20 30-20 49 0 19 7 36 20 49 13 14 29 21 48 21 19 0 35-7 48-21 13-13 20-30 20-49z m105 187l-254 0 0 15c0 5-2 10-5 13-3 3-7 5-12 5l-55 0c-5 0-9-2-12-5-3-3-5-8-5-13l0-15-2 0c-10 0-18-3-25-10-7-7-10-15-10-25l0-247c0-9 3-17 10-24 7-7 15-11 25-11l345 0c9 0 17 4 24 11 7 7 10 15 10 24l0 247c0 6-2 12-5 17-3 6-7 10-12 13-5 3-11 5-17 5z m-256-40c2 0 5-1 7-2 2-2 4-4 6-6 1-2 2-5 2-8 0-4-1-8-4-11-3-3-7-5-11-5-5 0-8 2-11 5-3 3-5 7-5 11 0 4 2 8 5 11 3 3 6 5 11 5z m83-246c-27 0-49 10-68 29-19 20-28 43-28 70 0 27 9 51 28 70 19 19 41 29 68 29 27 0 49-10 68-29 19-19 29-43 29-70 0-31-12-56-35-76-18-15-39-23-62-23z m166 217l-97 0c-5 0-9 1-12 4-4 3-5 6-5 9 0 4 1 7 5 10 3 3 7 4 12 4l97 0c5 0 9-1 12-4 3-3 5-6 5-10 0-3-2-6-5-9-3-3-7-4-12-4z"/>
<glyph unicode="&#69;" d="M139 203l125 125 126-125z"/>
<glyph unicode="&#70;" d="M359 256l-205-123 0 246z"/>
<glyph unicode="&#71;" d="M184 91l-151 151 33 33 118-117 262 263 34-34z"/>
<glyph unicode="&#72;" d="M296 2l-268 253 268 254 17-17-250-237 249-235z"/>
<glyph unicode="&#73;" d="M256 367c15 0 29 6 40 17 11 11 16 24 16 39 0 16-5 29-16 40-11 11-25 16-40 16-8 0-15-1-22-4-7-3-12-7-17-12-5-5-9-11-12-18-3-7-5-14-5-22 0-15 6-28 17-39 11-11 24-17 39-17z m0-55c-15 0-28-6-39-17-11-11-17-24-17-39 0-10 3-19 8-28 5-9 11-16 20-21 9-5 18-7 28-7 15 0 29 5 40 16 11 11 16 25 16 40 0 15-5 28-16 39-11 11-25 17-40 17z m0-168c-15 0-28-5-39-16-11-11-17-24-17-40 0-15 6-28 17-39 11-11 24-17 39-17 15 0 29 6 40 17 11 11 16 24 16 39 0 16-5 29-16 40-11 11-25 16-40 16z"/>
<glyph unicode="&#74;" d="M551 515c11 0 20-3 28-9 8-6 12-13 12-22l0-350c0-2-4-7-12-15-8-8-18-17-29-27-12-10-25-21-40-33-7-5-14-10-21-15-7-5-14-10-20-15-13-9-25-17-35-23-10-6-17-9-20-9l-453 0c-11 0-20 3-28 9-8 6-12 14-12 22l0 456c0 9 4 16 12 22 8 6 17 9 28 9z m-205-411c6 0 11 2 15 5 4 4 6 8 6 12 0 4-2 8-6 11-4 3-9 5-15 5l-318 0c-6 0-11-2-15-5-4-3-6-7-6-11 0-4 2-8 6-12 4-3 9-5 15-5z m170 132c6 0 11 1 15 4 4 4 6 8 6 13 0 2 0 4-1 6-1 2-3 3-5 5-4 3-9 4-15 4l-488 0c-6 0-11-1-15-4-2-2-4-3-5-5-1-2-1-4-1-6 0-5 2-9 6-12 4-3 9-5 15-5z m0 114c6 0 11 2 15 5 4 3 6 7 6 12 0 5-2 8-6 11-1 1-1 2-2 2-1 1-2 1-3 1l-3 1c-1 1-3 1-4 1l-491 0c-6 0-11-2-15-5-4-3-6-6-6-11 0-5 2-9 6-12 4-3 9-5 15-5z m0 0z"/>
<glyph unicode="&#75;" d="M97 335l316 0-158-158z"/>
<glyph unicode="&#76;" d="M64 448l384 0 0-384-384 0z"/>
<glyph unicode="&#77;" d="M512 0l-512 0 0 512 512 0z m-508 4l504 0 0 504-504 0z"/>
<glyph unicode="&#78;" d="M256 0c141 0 256 115 256 256 0 141-115 256-256 256-141 0-256-115-256-256 0-141 115-256 256-256z m0 475c121 0 219-98 219-219 0-121-98-219-219-219-121 0-219 98-219 219 0 121 98 219 219 219z m-77-177c8 0 15 3 21 9 11 11 11 29 0 41-6 5-13 9-21 9-8 0-15-4-21-9-11-12-11-30 0-41 6-6 13-9 21-9z m147 0c7 0 15 3 20 9 12 11 12 29 0 41-5 5-13 9-20 9-8 0-15-4-21-9-11-12-11-30 0-41 6-6 13-9 21-9z m-75-170c96 0 123 64 125 67 4 9-1 20-10 24-10 4-21 0-24-10-1-2-21-44-90-44-68 0-80 40-81 42l0-1-36-9c1-2 19-69 116-69z"/>
<glyph unicode="&#80;" d="M365 198c41 32 67 82 67 138 0 97-79 176-176 176-97 0-176-79-176-176 0-56 26-106 67-138-73-38-125-112-130-198l32 0c6 81 59 149 131 177 23-11 49-17 76-17 27 0 53 6 76 17 73-28 125-96 132-177l32 0c-6 86-58 160-131 198z m-109-6c-79 0-144 64-144 144 0 79 65 144 144 144 80 0 144-65 144-144 0-80-64-144-144-144z"/>
<glyph unicode="&#81;" d="M512 309l0-227c0-12-4-23-13-32-9-9-20-13-33-13l-420 0c-13 0-24 4-33 13-9 9-13 20-13 32l0 227c8-9 18-17 29-25 69-47 116-79 142-98 11-8 20-15 26-19 7-4 16-9 27-14 12-4 22-7 32-7l0 0c10 0 20 3 32 7 11 5 20 10 27 14 6 4 15 11 26 19 33 23 80 56 142 98 11 8 21 16 29 25z m0 84c0-15-5-29-14-43-9-14-21-25-35-35-71-50-116-81-134-93-1-1-6-4-12-9-6-4-11-8-15-11-4-2-9-5-15-9-6-3-11-6-16-8-6-1-10-2-15-2l0 0c-5 0-9 1-15 2-5 2-10 5-16 8-6 4-11 7-15 9-4 3-9 7-15 11-6 5-11 8-12 9-18 12-43 30-75 52-33 23-52 36-59 41-12 8-23 19-33 33-11 14-16 27-16 39 0 15 4 27 12 37 8 10 19 15 34 15l420 0c13 0 23-5 32-14 9-9 14-19 14-32z"/>
<glyph unicode="&#82;" d="M403 403c81-81 81-213 0-294-81-81-213-81-294 0-81 81-81 213 0 294 81 81 213 81 294 0z m-51-231l-84 84 84 84-12 12-84-84-84 84-12-12 84-84-84-84 12-12 84 84 84-84z"/>
<glyph unicode="&#83;" d="M288 288l0 128-64 0 0-128-128 0 0-64 128 0 0-128 64 0 0 128 128 0 0 64z"/>
<glyph unicode="&#84;" d="M384 91c0 5-2 10-5 13-4 4-8 6-13 6-5 0-10-2-13-6-4-3-6-8-6-13 0-5 2-9 6-12 3-4 8-6 13-6 5 0 9 2 13 6 3 3 5 7 5 12z m73 0c0 5-2 10-5 13-4 4-8 6-13 6-5 0-9-2-13-6-4-3-5-8-5-13 0-5 1-9 5-12 4-4 8-6 13-6 5 0 9 2 13 6 3 3 5 7 5 12z m37 64l0-91c0-8-3-14-8-19-6-6-12-8-20-8l-420 0c-8 0-14 2-20 8-5 5-8 11-8 19l0 91c0 8 3 15 8 20 6 5 12 8 20 8l122 0c4-11 10-20 20-26 9-7 20-11 31-11l74 0c11 0 22 4 31 11 10 6 16 15 20 26l122 0c8 0 14-3 20-8 5-5 8-12 8-20z m-93 186c-3-8-9-12-17-12l-73 0 0-128c0-5-2-9-6-13-3-3-7-5-12-5l-74 0c-5 0-9 2-12 5-4 4-6 8-6 13l0 128-73 0c-8 0-14 4-17 12-3 7-2 14 4 19l128 128c4 4 8 6 13 6 5 0 9-2 13-6l128-128c6-5 7-12 4-19z"/>
<glyph unicode="&#79;" d="M514-2l-516 0 0 516 516 0z m-512 4l508 0 0 508-508 0z m71 436l366 0 0-82-366 0z m0-141l366 0 0-82-366 0z m0-140l366 0 0-82-366 0z"/>
<glyph unicode="&#115;" d="M514-2l-516 0 0 516 516 0z m-512 4l508 0 0 508-508 0z m71 436l366 0 0-82-366 0z m0-141l366 0 0-82-366 0z m0-140l366 0 0-82-366 0z"/>
<glyph unicode="&#85;" d="M334 291c-5 0-11-1-15-3-5-2-10-5-14-9-5-3-9-7-13-11-4-4-7-8-10-11 3-4 7-8 11-12 4-4 8-7 12-10 5-3 9-6 14-7 5-2 10-3 16-3 10 0 17 3 23 9 5 7 7 14 7 24 0 9-2 17-8 23-6 7-13 10-23 10z m-111-23c-4 4-9 8-13 11-5 4-10 7-15 9-5 2-10 3-15 3-9 0-16-3-22-10-5-7-8-15-8-24 0-9 3-17 9-23 5-6 13-9 23-9 5 0 10 1 15 3 5 2 9 4 14 7 4 3 8 7 12 10 4 4 8 8 11 12-3 3-7 7-11 11z m181 172l-296 0c-20 0-36-16-36-36l0-296c0-20 16-36 36-36l296 0c20 0 36 16 36 36l0 296c0 20-16 36-36 36z m-6-210c-3-9-8-17-14-24-5-6-13-12-21-15-9-4-18-6-29-6-8 0-16 1-23 4-7 2-14 5-20 9-6 5-12 9-17 15-6 5-11 11-16 16-6-5-11-11-16-16-6-6-11-10-17-15-6-4-13-7-20-9-7-3-14-4-23-4-11 0-21 2-29 6-8 3-16 8-22 15-6 6-10 14-14 23-3 9-4 19-4 29 0 10 1 20 4 29 3 8 8 16 13 23 6 6 13 11 22 15 8 4 18 6 28 6 9 0 17-2 24-4 7-3 14-6 20-11 7-4 12-9 18-15 5-5 11-11 16-18 5 6 10 12 15 18 6 6 12 11 18 15 6 5 13 8 20 11 7 2 15 4 24 4 10 0 20-2 28-6 8-4 16-9 21-15 6-6 11-14 14-23 3-8 5-18 5-28 0-11-2-20-5-29z"/>
<glyph unicode="&#86;" d="M304 419l136-326 0 326z m-232 0l0-326 136 326z m124-261l64 0 26-65 57 0-87 206z"/>
<glyph unicode="&#85;" d="M256 448c-141 0-256-190-256-190 0 0 115-194 256-194 141 0 256 194 256 194 0 0-115 190-256 190z m0-320c-71 0-128 57-128 128 0 71 57 128 128 128 71 0 128-57 128-128 0-71-57-128-128-128z m64 128c0-36-29-64-64-64-35 0-64 28-64 64 0 35 29 64 64 64 35 0 64-29 64-64z"/>
<glyph unicode="&#86;" d="M494 327c0-4-3-9-8-14l-103-101 24-143c0-1 0-3 0-5 0-4-1-8-3-10-2-3-4-5-8-5-4 0-8 2-12 4l-128 67-128-67c-4-2-8-4-12-4-4 0-7 2-9 5-2 2-3 6-3 10 0 1 0 3 1 5l24 143-104 101c-4 6-7 10-7 14 0 7 6 12 16 13l144 21 64 130c4 8 8 12 14 12 6 0 10-4 14-12l64-130 144-21c10-1 16-6 16-13z"/>
<glyph unicode="&#87;" d="M292 353l74 0-9-81-65 0 0-235-97 0 0 235-49 0 0 81 49 0 0 49c0 35 8 61 24 79 17 18 44 26 81 26l65 0 0-81-40 0c-8 0-14 0-18-2-5-1-8-3-10-6-2-4-3-7-4-10 0-3-1-8-1-14z"/>
<glyph unicode="&#88;" d="M314 157l0-61c0-12-4-19-11-19-5 0-9 2-13 6l0 86c4 5 8 7 13 7 7 0 11-7 11-19z m97-1l0-13-26 0 0 13c0 13 4 20 13 20 8 0 13-7 13-20z m-276 63l30 0 0 26-89 0 0-26 30 0 0-163 29 0z m82-163l25 0 0 141-25 0 0-108c-6-8-11-12-16-12-4 0-6 2-6 6-1 1-1 4-1 10l0 104-25 0 0-112c0-9 1-16 2-20 2-7 8-11 17-11 9 0 19 6 29 17z m122 42l0 57c0 13 0 23-2 28-3 11-10 16-20 16-10 0-19-5-27-16l0 62-25 0 0-189 25 0 0 14c9-11 17-16 27-16 10 0 17 5 20 16 2 5 2 14 2 28z m97 3l0 4-26 0c0-10 0-16-1-18-1-6-5-10-11-10-9 0-13 7-13 20l0 25 51 0 0 29c0 15-3 26-8 33-7 10-17 15-30 15-13 0-23-5-31-15-5-7-8-18-8-33l0-49c0-15 3-26 9-33 7-10 17-15 31-15 13 0 24 5 30 15 4 5 6 10 6 16 1 1 1 7 1 16z m-174 261l0 60c0 13-4 20-12 20-8 0-12-7-12-20l0-60c0-13 4-20 12-20 8 0 12 7 12 20z m206-215c0-44-3-77-8-100-2-11-8-20-16-28-9-7-18-12-29-13-35-4-88-6-159-6-71 0-124 2-159 6-11 1-20 6-29 13-8 8-14 17-16 28-5 22-8 55-8 100 0 45 3 78 8 100 2 12 8 21 16 29 9 7 18 12 30 13 35 4 87 6 158 6 71 0 124-2 159-6 11-1 20-6 29-13 8-8 14-17 16-29 5-21 8-54 8-100z m-285 365l29 0-35-114 0-77-28 0 0 77c-3 14-9 34-18 61-7 19-13 37-18 53l30 0 20-75z m105-95l0-50c0-16-2-27-8-34-7-10-17-14-30-14-13 0-23 4-30 14-5 7-8 19-8 34l0 50c0 15 3 26 8 33 7 10 17 15 30 15 13 0 23-5 30-15 6-7 8-18 8-33z m96 46l0-142-26 0 0 15c-10-12-20-17-29-17-9 0-15 3-17 10-2 5-3 12-3 22l0 112 26 0 0-105c0-6 1-9 1-10 0-4 2-6 6-6 5 0 10 4 16 12l0 109z"/>
<glyph unicode="&#89;" d="M193 145c4 7 5 13 3 20-2 7-6 11-13 14-6 3-13 3-21 0-7-2-13-6-17-13-4-6-5-13-4-19 2-7 6-12 13-15 6-3 13-3 21 0 8 2 14 7 18 13z m27 35c1 2 2 5 1 7-1 3-3 5-5 6-3 1-6 0-8-1-3-1-5-2-7-5-3-6-2-10 4-13 3-1 6-1 8 0 3 1 5 3 7 6z m49-31c-8-19-23-34-45-43-21-9-43-10-64-3-20 6-34 18-42 36-8 18-7 35 2 54 9 17 23 31 43 39 20 9 40 11 60 6 22-6 37-17 46-34 9-18 9-36 0-55z m90 46c-2 18-11 34-26 48-15 15-35 25-59 32-25 6-51 8-79 6-42-5-78-18-105-41-28-22-41-48-38-75 1-19 10-35 25-49 15-14 35-24 60-31 24-7 50-9 78-6 43 4 78 18 106 40 28 23 40 48 38 76z m88-1c0-13-4-27-11-40-7-14-17-27-31-39-14-13-30-24-48-34-19-10-40-18-65-24-25-5-50-8-77-8-27 0-53 3-79 9-25 7-48 15-68 27-21 11-37 25-49 43-13 17-19 36-19 57 0 22 7 45 20 70 13 25 32 49 56 74 32 32 65 54 98 67 33 13 56 12 70-2 13-12 15-32 6-60-1-2-1-4 0-5 0-2 1-2 3-2 1-1 2-1 4 0 1 0 2 0 4 1l1 0c27 12 50 17 71 17 20 0 35-6 43-17 9-12 9-29 0-51 0-3-1-5-1-6 0-1 0-2 1-3 2-1 3-2 4-3 1 0 2-1 5-1 10-4 20-8 29-14 9-5 16-13 23-23 6-10 10-21 10-33z m-22 178c8-9 14-19 16-31 2-12 2-23-2-34-1-4-4-7-8-9-4-2-9-3-13-1-4 1-8 4-10 8-2 4-2 8-1 13 4 12 2 22-7 31-8 10-18 13-30 10-5-1-9 0-13 3-4 2-7 6-7 10-1 5 0 9 2 13 2 4 6 6 11 7 11 3 22 2 34-1 11-4 20-10 28-19z m52 47c17-19 27-40 32-64 5-24 4-47-4-69-1-5-5-9-9-11-5-3-10-3-15-2-5 2-9 5-12 10-2 5-3 10-1 15 5 16 6 32 3 49-4 17-11 32-23 45-12 13-26 23-42 28-17 5-33 5-50 2-5-1-10 0-15 3-4 3-7 7-8 12-1 5 0 10 3 15 3 4 7 7 12 8 23 5 47 4 70-3 23-7 43-20 59-38z"/>
<glyph unicode="&#90;" d="M426 105l0 185-39 0c4-12 6-25 6-38 0-24-6-46-18-66-13-20-29-36-50-48-21-12-44-18-69-18-37 0-69 13-96 39-27 26-40 57-40 93 0 13 2 26 6 38l-41 0 0-185c0-5 2-10 5-13 4-3 8-5 13-5l305 0c5 0 9 2 13 5 3 3 5 8 5 13z m-81 152c0 23-9 44-26 60-18 17-38 25-63 25-24 0-45-8-62-25-17-16-26-37-26-60 0-24 9-44 26-61 17-16 38-25 62-25 25 0 45 9 63 25 17 17 26 37 26 61z m81 103l0 47c0 5-2 10-6 14-4 4-8 6-14 6l-50 0c-5 0-10-2-14-6-4-4-5-9-5-14l0-47c0-6 1-10 5-14 4-4 9-6 14-6l50 0c6 0 10 2 14 6 4 4 6 8 6 14z m49 59l0-326c0-16-5-29-16-40-11-11-24-16-40-16l-326 0c-16 0-29 5-40 16-11 11-16 24-16 40l0 326c0 16 5 29 16 40 11 11 24 16 40 16l326 0c16 0 29-5 40-16 11-11 16-24 16-40z"/>
<glyph unicode="&#48;" d="M269 93c0 4-1 8-2 12-1 4-1 7-2 10-1 3-3 7-5 10-3 4-5 6-6 9-2 2-5 5-8 8-3 4-6 6-8 8-2 1-5 4-9 7-4 3-7 5-9 6-1 2-5 4-9 7-5 3-8 5-9 6-3 0-8 1-14 1-11 0-21-1-31-2-9-2-20-4-30-8-11-3-20-7-28-13-8-5-15-12-20-21-5-9-8-19-8-31 0-13 4-24 10-34 7-11 16-19 27-24 11-6 22-11 34-13 12-3 24-5 37-5 11 0 22 1 32 4 10 2 19 6 28 11 9 5 16 12 22 21 5 9 8 19 8 31z m-35 247c0 11-1 23-4 36-4 13-8 25-14 37-6 12-14 22-24 30-10 8-21 12-34 12-18 0-31-7-41-20-10-13-15-29-15-47 0-9 1-18 4-28 2-10 5-20 10-30 4-10 10-19 16-27 6-8 13-14 22-19 9-5 18-7 28-7 18 0 32 5 40 17 8 11 12 27 12 46z m-37 135l125 0-39-22-38 0c13-9 24-21 31-36 7-16 11-32 11-48 0-15-2-27-6-38-5-11-10-20-16-26-7-7-13-13-19-19-7-5-12-11-16-17-5-6-7-13-7-20 0-5 2-9 5-14 3-5 7-9 12-14 5-4 11-9 17-14 6-4 12-10 18-15 6-6 12-13 17-19 5-7 9-15 12-25 3-9 5-19 5-30 0-30-13-57-40-81-29-25-69-37-120-37-11 0-23 1-34 3-12 2-23 5-35 9-12 5-22 10-31 17-9 7-16 15-22 25-6 11-9 22-9 35 0 12 4 25 11 39 6 12 15 22 27 31 12 9 26 16 42 21 15 4 30 8 44 10 14 2 28 3 43 4-12 16-18 30-18 42 0 3 0 5 0 7 1 2 1 4 2 6 0 1 1 3 2 6 1 2 1 4 2 6-8-1-14-2-20-2-29 0-53 10-73 28-20 19-31 43-31 71 0 26 9 50 28 71 18 21 40 35 66 41 18 4 36 5 54 5z m297-73l0-36-73 0 0-73-37 0 0 73-73 0 0 36 73 0 0 73 37 0 0-73z"/>
<glyph unicode="&#49;" d="M469 464l-69 0 0 32c0 9-7 16-16 16-9 0-16-7-16-16l0-32-96 0 0 32c0 9-7 16-16 16-9 0-16-7-16-16l0-32-96 0 0 32c0 9-7 16-16 16-9 0-16-7-16-16l0-32-69 0c-24 0-43-19-43-43l0-378c0-24 19-43 43-43l426 0c24 0 43 19 43 43l0 378c0 24-19 43-43 43z m11-421c0-6-5-11-11-11l-426 0c-6 0-11 5-11 11l0 378c0 6 5 11 11 11l69 0 0-32c0-9 7-16 16-16 9 0 16 7 16 16l0 32 96 0 0-32c0-9 7-16 16-16 9 0 16 7 16 16l0 32 96 0 0-32c0-9 7-16 16-16 9 0 16 7 16 16l0 32 69 0c6 0 11-5 11-11z m-368 277l64 0 0-48-64 0z m0-80l64 0 0-48-64 0z m0-80l64 0 0-48-64 0z m112 0l64 0 0-48-64 0z m0 80l64 0 0-48-64 0z m0 80l64 0 0-48-64 0z m112-160l64 0 0-48-64 0z m0 80l64 0 0-48-64 0z m0 80l64 0 0-48-64 0z"/>
<glyph unicode="&#87;" d="M472 316l-143 21c-1 0-1 0-1 1l-64 129c0 1 0 1 0 0l-64-129c-1-1-1-1-1-1l-143-21c-1 0-1 0 0 0l103-101c0 0 0-1 0-1l-24-143c0 0 0 0 0 0l128 67c0 1 1 1 1 1 0 20 11 36 23 36l34 0 0 33c0 13 17 24 38 24 8 0 16-2 22-5l91 89c0 0 0 0 0 0z m-57-160l-37 0 0 38c0 11-9 19-19 19-11 0-19-8-19-19l0-38-38 0c-11 0-19-8-19-19 0-10 8-19 19-19l38 0 0-38c0-10 8-19 19-19 10 0 19 9 19 19l0 38 37 0c11 0 19 9 19 19 0 11-8 19-19 19z"/>
<glyph unicode="&#88;" d="M260 480c-121 0-220-98-220-218 0-41 12-80 32-113l-40-117 122 39c31-18 68-27 106-27 122 0 220 97 220 218 0 120-98 218-220 218z m109-301c-5-13-28-25-38-25-11-1-11-8-67 16-57 25-90 84-93 88-3 4-22 31-21 58 1 28 16 41 22 46 5 5 11 6 15 7 4 0 7 0 10 0 4-1 9 0 13-11 4-11 14-39 16-42 1-3 2-6 0-10-2-4-3-6-6-9-3-3-6-7-9-9-3-3-6-6-3-12 3-5 14-24 30-39 21-20 38-27 44-30 5-3 9-2 12 1 4 4 15 16 19 21 4 6 7 5 13 3 5-2 32-17 37-20 6-3 9-4 11-7 1-2 1-13-5-26z"/>
<glyph unicode="&#89;" d="M255 189c-15 0-29 2-43 5l0 0c-6 2-10 7-10 13 0 8 6 14 14 14 2 0 4 0 6-1 10-3 21-4 33-4 77 0 139 60 139 134 0 75-62 135-139 135-78 0-140-60-140-135 0-24 7-47 18-67l0 0c2-2 2-4 2-7 0-7-6-13-14-13-6 0-11 3-13 8-13 24-21 51-21 79 0 90 75 162 168 162 92 0 168-72 168-162 0-89-76-161-168-161z m-2 212c-31 0-56-24-56-54 0-9 2-17 6-24-16-14-125-121-98-316 0 0 1-8 14-7 4 0 12 3 11 9-4 57-11 192 92 293 9-6 20-10 31-10 31 0 57 25 57 55 0 30-26 54-57 54z"/>
<glyph unicode="&#50;" d="M73 441l165 0 0-165-165 0z m200 0l165 0 0-165-165 0z m-200-198l165 0 0-165-165 0z m200 0l165 0 0-165-165 0z"/>
<glyph unicode="&#51;" d="M73 438l366 0 0-82-366 0z m0-141l366 0 0-82-366 0z m0-140l366 0 0-82-366 0z"/>
<glyph unicode="&#52;" d="M256 0c141 0 256 115 256 256 0 141-115 256-256 256-141 0-256-115-256-256 0-141 115-256 256-256z m0 472c119 0 216-97 216-216 0-119-97-216-216-216-119 0-216 97-216 216 0 119 97 216 216 216z m-128-232l198 0-38-41 21-23 75 80-75 80-21-23 38-41-198 0z"/>
<glyph unicode="&#53;" d="M0 256c0-141 115-256 256-256 141 0 256 115 256 256 0 141-115 256-256 256-141 0-256-115-256-256z m472 0c0-119-97-216-216-216-119 0-216 97-216 216 0 119 97 216 216 216 119 0 216-97 216-216z m-232 128l0-198-41 38-23-21 80-75 80 75-23 21-41-38 0 198z"/>
<glyph unicode="&#54;" d="M512 256c0 141-115 256-256 256-141 0-256-115-256-256 0-141 115-256 256-256 141 0 256 115 256 256z m-472 0c0 119 97 216 216 216 119 0 216-97 216-216 0-119-97-216-216-216-119 0-216 97-216 216z m232-128l0 198 41-38 23 21-80 75-80-75 23-21 41 38 0-198z"/>
<glyph unicode="&#55;" d="M256 512c-141 0-256-115-256-256 0-141 115-256 256-256 141 0 256 115 256 256 0 141-115 256-256 256z m0-472c-119 0-216 97-216 216 0 119 97 216 216 216 119 0 216-97 216-216 0-119-97-216-216-216z m128 232l-198 0 38 41-21 23-75-80 75-80 21 23-38 41 198 0z"/>
<glyph unicode="&#56;" d="M256 37c-5 0-9 1-13 5l-178 172c-2 1-4 4-8 7-3 4-8 10-16 19-7 9-13 18-19 28-6 9-11 21-15 34-5 14-7 27-7 40 0 42 12 74 36 98 24 24 58 35 101 35 11 0 23-2 36-6 12-4 23-9 34-16 11-7 20-14 27-20 8-6 15-12 22-19 7 7 14 13 22 19 7 6 16 13 27 20 11 7 22 12 34 16 13 4 25 6 36 6 43 0 77-11 101-35 24-24 36-56 36-98 0-42-22-85-65-129l-178-171c-4-4-8-5-13-5z"/>
<glyph unicode="&#57;" d="M475 342c0 15-2 29-6 41-4 11-9 21-15 28-7 7-15 12-24 17-9 4-18 7-27 9-8 1-18 2-28 2-9 0-20-3-32-7-11-5-22-11-31-19-10-7-18-14-25-20-7-7-12-13-17-18-3-4-8-6-14-6-6 0-11 2-14 6-5 5-10 11-17 18-7 6-15 13-25 20-9 8-20 14-31 19-12 4-23 7-32 7-10 0-20-1-28-2-9-2-18-5-27-9-9-5-17-10-24-17-6-7-11-17-15-28-4-12-6-26-6-41 0-32 17-66 53-102l166-160 166 160c36 36 53 70 53 102z m37 0c0-42-22-85-65-129l-178-171c-4-4-8-5-13-5-5 0-9 1-13 5l-178 172c-2 1-4 4-8 7-3 4-8 10-16 19-7 9-13 18-19 28-6 9-11 21-15 34-5 14-7 27-7 40 0 42 12 74 36 98 24 24 58 35 101 35 11 0 23-2 36-6 12-4 23-9 34-16 11-7 20-14 27-20 8-6 15-12 22-19 7 7 14 13 22 19 7 6 16 13 27 20 11 7 22 12 34 16 13 4 25 6 36 6 43 0 77-11 101-35 24-24 36-56 36-98z"/>
<glyph unicode="&#33;" d="M201 302l0-165c0-3-1-5-2-6-2-2-4-3-7-3l-18 0c-3 0-5 1-7 3-2 1-2 3-2 6l0 165c0 2 0 5 2 6 2 2 4 3 7 3l18 0c3 0 5-1 7-3 1-1 2-4 2-6z m73 0l0-165c0-3-1-5-2-6-2-2-4-3-7-3l-18 0c-3 0-5 1-7 3-1 1-2 3-2 6l0 165c0 2 1 5 2 6 2 2 4 3 7 3l18 0c3 0 5-1 7-3 1-1 2-4 2-6z m73 0l0-165c0-3 0-5-2-6-2-2-4-3-7-3l-18 0c-3 0-5 1-7 3-1 1-2 3-2 6l0 165c0 2 1 5 2 6 2 2 4 3 7 3l18 0c3 0 5-1 7-3 2-1 2-4 2-6z m37-207l0 271-256 0 0-271c0-4 1-8 2-12 1-3 3-6 4-7 2-2 3-3 3-3l238 0c0 0 1 1 3 3 1 1 3 4 4 7 1 4 2 8 2 12z m-192 307l128 0-14 34c-1 1-3 2-5 3l-90 0c-2-1-4-2-5-3z m265-9l0-18c0-3-1-5-2-7-2-1-4-2-7-2l-27 0 0-271c0-16-5-30-14-41-9-12-20-17-32-17l-238 0c-12 0-23 5-32 16-9 11-14 25-14 41l0 272-27 0c-3 0-5 1-7 2-1 2-2 4-2 7l0 18c0 3 1 5 2 7 2 1 4 2 7 2l88 0 20 48c3 7 8 13 16 18 7 5 15 7 22 7l92 0c7 0 15-2 22-7 8-5 13-11 16-18l20-48 88 0c3 0 5-1 7-2 1-2 2-4 2-7z"/>
<glyph unicode="&#34;" d="M448 398l-114 0 0 114z m-128-14l0 128-256 0 0-224 384 0 0 96z m-34-204c-3 5-7 9-13 12-5 3-12 4-19 4-8 0-14-1-19-4-6-3-10-7-13-12-4-5-6-11-8-17-1-6-2-13-2-20 0-6 1-12 2-18 2-6 4-12 8-17 3-5 7-9 13-11 5-3 11-5 19-5 7 0 14 2 19 5 6 2 10 6 13 11 3 5 6 11 7 17 2 6 3 12 3 18 0 7-1 14-3 20-1 6-4 12-7 17z m-286 76l0-224 512 0 0 224z m161-142c-3-9-7-18-13-24-5-7-13-13-21-17-9-4-19-6-31-6l-66 0 0 154 66 0c10 0 19-2 28-5 8-3 15-8 22-14 6-6 11-14 14-24 4-9 6-20 6-33 0-11-2-22-5-31z m163-2c-3-9-8-18-15-25-6-7-14-13-23-17-10-4-20-6-32-6-12 0-22 2-32 6-9 4-17 10-24 17-6 7-11 16-14 25-4 10-6 20-6 31 0 12 2 23 6 32 3 10 8 19 14 26 7 7 15 13 24 17 10 4 20 6 32 6 12 0 22-2 32-6 9-4 17-10 23-17 7-7 12-16 15-26 4-9 5-20 5-32 0-11-1-21-5-31z m154-12c-3-7-8-14-14-19-6-6-13-10-21-13-8-3-16-4-26-4-11 0-22 2-31 6-10 4-18 10-24 17-7 7-12 16-15 25-3 10-5 20-5 31 0 12 2 23 5 32 3 10 8 19 15 26 6 7 14 13 24 17 9 4 20 6 31 6 9 0 17-1 24-3 8-3 15-6 20-11 6-4 11-10 15-17 4-7 6-15 7-24l-32 0c-1 4-2 8-4 11-2 3-5 6-8 8-3 3-6 5-10 6-4 1-8 2-12 2-7 0-14-1-19-4-5-3-10-7-13-12-3-5-6-11-7-17-2-6-2-13-2-20 0-6 0-12 2-18 1-6 4-12 7-17 3-5 8-9 13-11 5-3 12-5 19-5 11 0 19 3 24 10 6 6 10 14 11 25l33 0c-1-10-3-19-7-27z m-356 79c-3 4-8 8-13 10-6 2-13 3-21 3l-24 0 0-96 30 0c4 0 9 1 14 2 4 2 8 4 12 8 4 4 6 8 9 14 2 6 3 13 3 22 0 7-1 14-2 21-2 6-4 11-8 16z"/>
<glyph unicode="&#35;" d="M475 60l-99 88c12 15 22 32 29 50 10 25 15 52 15 79 0 27-5 53-15 78-9 24-23 46-41 64-18 19-38 34-62 44-23 10-49 16-75 16-26 0-52-6-76-16-23-10-44-25-61-44-18-18-32-40-42-64-10-25-15-51-15-78 0-27 5-54 15-79 10-24 24-45 42-64 17-18 38-33 61-43 24-11 50-16 76-16 26 0 52 5 75 16 20 8 37 20 53 34l99-88c3-3 7-4 10-4 5 0 9 2 12 5 6 6 5 16-1 22z m-248 46c-90 0-163 76-163 171 0 94 73 171 163 171 90 0 163-77 163-171 0-95-73-171-163-171z"/>
<glyph unicode="&#36;" d="M128 288l0-64 256 0 0 64z"/>
<glyph unicode="&#37;" d="M257 479c-124 0-224-100-224-223 0-124 100-224 224-224 123 0 223 100 223 224 0 123-100 223-223 223z m0-417c-107 0-194 87-194 194 0 107 87 194 194 194 107 0 193-87 193-194 0-107-86-194-193-194z m46 135c-6 0-27-31-38-31-4 0-5 2-5 5 0 6 4 15 6 20l28 72c14 36-4 46-20 46-23 0-43-11-58-25-5-5-18-23-18-30 0-3 3-5 5-5 8 0 21 36 36 36 3 0 6-4 4-10l-28-65c-2-7-15-28-15-46 0-14 9-29 23-29 39 0 84 46 84 56 0 4-2 6-4 6z m-8 180c-17 0-32-13-32-30 0-15 11-25 27-25 17 0 32 13 32 30 0 15-11 25-27 25z"/>
<glyph unicode="&#38;" d="M420 262c-3-5-2-11 2-14 5-3 11-2 14 3 18 59 15 110 3 181-2 4-5 7-10 7-104 1-157 47-175 66-1 2-6 7-14 7-4 0-10-1-16-6 0 0 0-1 0-1-55-59-141-66-175-66-5 0-8-3-10-7 0-1-5-18-8-46-3-26-4-66 3-111 8-51 26-99 54-141 34-53 82-97 144-133 1-1 2-1 4-1l1 0c0 0 0 0 1 0 1 0 3 0 5 1 29 17 57 37 81 58 2 2 37 29 62 32 5 1 9 6 8 11-1 5-5 9-11 8-31-4-70-35-72-36 0 0 0 0 0-1-22-19-47-37-74-53-57 34-101 75-133 124-26 40-43 85-51 133-11 68-1 124 3 143 45 1 86 10 121 28 30 14 49 32 60 44 2 1 3 1 3 0 11-12 30-29 61-44 35-17 76-27 121-28 12-65 15-99-2-158z m-301 114c5 1 8 7 7 12-2 5-7 8-12 6-11-3-25-4-26-4-4-1-7-4-8-8 0-2-7-41 1-94 1-4 5-8 10-8 0 0 1 0 1 0 5 1 9 6 8 11-6 37-4 67-2 80 6 1 14 3 21 5z m177 1l0-86-93 0 0 86-48 0 0-210 48 0 0 86 93 0 0-86 48 0 0 210z m-55-212l43-62 198 136z"/>
<glyph unicode="&#39;" d="M514 311l-197-3-62 187-58-188-197-2 161-113-59-188 157 118 160-114-63 186z"/>
<glyph unicode="&#40;" d="M401 110l0 402-62-200-211-2 172-121-63-201z"/>
<glyph unicode="&#41;" d="M255 120l0 375-58-187-197-1 161-114-59-188z"/>
<glyph unicode="&#42;" d="M255 120l0 375-58-187-197-1 161-114-59-188z m256 122c0-1-1-2-2-2-1 0-2 1-2 2 0 1 1 2 2 2 1 0 2-1 2-2z"/>
<glyph unicode="&#43;" d="M256 10c-133 0-240 107-240 240 0 133 107 240 240 240 133 0 240-107 240-240 0-133-107-240-240-240z m0 448c-115 0-208-93-208-208 0-115 93-208 208-208 115 0 208 93 208 208 0 115-93 208-208 208z m-110-326l0 33c0 0 55 33 112 33 56 0 108-33 108-33l0-33c0 0-52 33-108 33-57 0-112-33-112-33z m177 127c-18 0-33 24-33 55 0 30 15 54 33 54 18 0 32-24 32-54 0-31-14-55-32-55z m-130 0c-18 0-33 24-33 55 0 30 15 54 33 54 18 0 32-24 32-54 0-31-14-55-32-55z"/>
</font>
</defs>
</svg>
